<svg width="76" height="24" viewBox="0 0 76 24" fill="none" xmlns="http://www.w3.org/2000/svg">
<rect width="76" height="24" rx="8" fill="#2B7FFF"/>
<g clip-path="url(#clip0_596_7824)">
<path d="M20.9005 11.0002C21.1288 12.1209 20.9661 13.286 20.4394 14.3011C19.9127 15.3163 19.0539 16.1203 18.0062 16.5789C16.9586 17.0375 15.7853 17.1231 14.6821 16.8214C13.579 16.5197 12.6126 15.8489 11.9441 14.9209C11.2757 13.993 10.9455 12.8639 11.0088 11.7219C11.0721 10.58 11.5249 9.49428 12.2918 8.64582C13.0587 7.79736 14.0933 7.23745 15.223 7.05947C16.3528 6.88148 17.5094 7.09617 18.5 7.66774" stroke="white" stroke-linecap="round" stroke-linejoin="round"/>
<path d="M14.5 11.5L16 13L21 8" stroke="white" stroke-linecap="round" stroke-linejoin="round"/>
</g>
<path d="M27.2969 8L29.6719 14.7344H29.7656L32.1406 8H33.1563L30.2188 16H29.2188L26.2813 8H27.2969ZM36.2344 16.125C35.6563 16.125 35.1576 15.9974 34.7383 15.7422C34.3216 15.4844 34 15.125 33.7734 14.6641C33.5495 14.2005 33.4375 13.6615 33.4375 13.0469C33.4375 12.4323 33.5495 11.8906 33.7734 11.4219C34 10.9505 34.3151 10.5833 34.7188 10.3203C35.125 10.0547 35.599 9.92188 36.1406 9.92188C36.4531 9.92188 36.7617 9.97396 37.0664 10.0781C37.3711 10.1823 37.6484 10.3516 37.8984 10.5859C38.1484 10.8177 38.3477 11.125 38.4961 11.5078C38.6445 11.8906 38.7188 12.362 38.7188 12.9219V13.3125H34.0938V12.5156H37.7813C37.7813 12.1771 37.7135 11.875 37.5781 11.6094C37.4453 11.3437 37.2552 11.1341 37.0078 10.9805C36.763 10.8268 36.474 10.75 36.1406 10.75C35.7734 10.75 35.4557 10.8411 35.1875 11.0234C34.9219 11.2031 34.7174 11.4375 34.5742 11.7266C34.431 12.0156 34.3594 12.3255 34.3594 12.6562V13.1875C34.3594 13.6406 34.4375 14.0247 34.5938 14.3398C34.7526 14.6523 34.9727 14.8906 35.2539 15.0547C35.5352 15.2161 35.862 15.2969 36.2344 15.2969C36.4766 15.2969 36.6953 15.263 36.8906 15.1953C37.0885 15.125 37.2591 15.0208 37.4023 14.8828C37.5456 14.7422 37.6563 14.5677 37.7344 14.3594L38.625 14.6094C38.5313 14.9115 38.3737 15.1771 38.1523 15.4062C37.931 15.6328 37.6576 15.8099 37.332 15.9375C37.0065 16.0625 36.6406 16.125 36.2344 16.125ZM40.1211 16V10H41.0117V10.9062H41.0742C41.1836 10.6094 41.3815 10.3685 41.668 10.1836C41.9544 9.9987 42.2773 9.90625 42.6367 9.90625C42.7044 9.90625 42.7891 9.90755 42.8906 9.91016C42.9922 9.91276 43.069 9.91667 43.1211 9.92188V10.8594C43.0898 10.8516 43.0182 10.8398 42.9063 10.8242C42.7969 10.806 42.681 10.7969 42.5586 10.7969C42.2669 10.7969 42.0065 10.8581 41.7773 10.9805C41.5508 11.1003 41.3711 11.2669 41.2383 11.4805C41.1081 11.6914 41.043 11.9323 41.043 12.2031V16H40.1211ZM44.2139 16V10H45.1357V16H44.2139ZM44.6826 9C44.5029 9 44.348 8.9388 44.2178 8.81641C44.0902 8.69401 44.0264 8.54688 44.0264 8.375C44.0264 8.20313 44.0902 8.05599 44.2178 7.93359C44.348 7.8112 44.5029 7.75 44.6826 7.75C44.8623 7.75 45.016 7.8112 45.1436 7.93359C45.2738 8.05599 45.3389 8.20313 45.3389 8.375C45.3389 8.54688 45.2738 8.69401 45.1436 8.81641C45.016 8.9388 44.8623 9 44.6826 9ZM49.4961 10V10.7812H46.2617V10H49.4961ZM47.2305 16V9.17188C47.2305 8.82812 47.3112 8.54167 47.4727 8.3125C47.6341 8.08333 47.8437 7.91146 48.1016 7.79687C48.3594 7.68229 48.6315 7.625 48.918 7.625C49.1445 7.625 49.3294 7.64323 49.4727 7.67969C49.6159 7.71615 49.7227 7.75 49.793 7.78125L49.5273 8.57812C49.4805 8.5625 49.4154 8.54297 49.332 8.51953C49.2513 8.49609 49.1445 8.48437 49.0117 8.48437C48.707 8.48437 48.487 8.5612 48.3516 8.71484C48.2188 8.86849 48.1523 9.09375 48.1523 9.39062V16H47.2305ZM50.7881 16V10H51.71V16H50.7881ZM51.2568 9C51.0771 9 50.9222 8.9388 50.792 8.81641C50.6644 8.69401 50.6006 8.54688 50.6006 8.375C50.6006 8.20313 50.6644 8.05599 50.792 7.93359C50.9222 7.8112 51.0771 7.75 51.2568 7.75C51.4365 7.75 51.5902 7.8112 51.7178 7.93359C51.848 8.05599 51.9131 8.20313 51.9131 8.375C51.9131 8.54688 51.848 8.69401 51.7178 8.81641C51.5902 8.9388 51.4365 9 51.2568 9ZM55.9141 16.125C55.3359 16.125 54.8372 15.9974 54.418 15.7422C54.0013 15.4844 53.6797 15.125 53.4531 14.6641C53.2292 14.2005 53.1172 13.6615 53.1172 13.0469C53.1172 12.4323 53.2292 11.8906 53.4531 11.4219C53.6797 10.9505 53.9948 10.5833 54.3984 10.3203C54.8047 10.0547 55.2786 9.92188 55.8203 9.92188C56.1328 9.92188 56.4414 9.97396 56.7461 10.0781C57.0508 10.1823 57.3281 10.3516 57.5781 10.5859C57.8281 10.8177 58.0273 11.125 58.1758 11.5078C58.3242 11.8906 58.3984 12.362 58.3984 12.9219V13.3125H53.7734V12.5156H57.4609C57.4609 12.1771 57.3932 11.875 57.2578 11.6094C57.125 11.3437 56.9349 11.1341 56.6875 10.9805C56.4427 10.8268 56.1536 10.75 55.8203 10.75C55.4531 10.75 55.1354 10.8411 54.8672 11.0234C54.6016 11.2031 54.3971 11.4375 54.2539 11.7266C54.1107 12.0156 54.0391 12.3255 54.0391 12.6562V13.1875C54.0391 13.6406 54.1172 14.0247 54.2734 14.3398C54.4323 14.6523 54.6523 14.8906 54.9336 15.0547C55.2148 15.2161 55.5417 15.2969 55.9141 15.2969C56.1563 15.2969 56.375 15.263 56.5703 15.1953C56.7682 15.125 56.9388 15.0208 57.082 14.8828C57.2253 14.7422 57.3359 14.5677 57.4141 14.3594L58.3047 14.6094C58.2109 14.9115 58.0534 15.1771 57.832 15.4062C57.6107 15.6328 57.3372 15.8099 57.0117 15.9375C56.6862 16.0625 56.3203 16.125 55.9141 16.125ZM62.0664 16.125C61.5664 16.125 61.125 15.9987 60.7422 15.7461C60.3594 15.4909 60.0599 15.1315 59.8438 14.668C59.6276 14.2018 59.5195 13.651 59.5195 13.0156C59.5195 12.3854 59.6276 11.8385 59.8438 11.375C60.0599 10.9115 60.3607 10.5534 60.7461 10.3008C61.1315 10.0482 61.5768 9.92188 62.082 9.92188C62.4727 9.92188 62.7813 9.98698 63.0078 10.1172C63.237 10.2448 63.4115 10.3906 63.5313 10.5547C63.6536 10.7161 63.7487 10.849 63.8164 10.9531H63.8945V8H64.8164V16H63.9258V15.0781H63.8164C63.7487 15.1875 63.6523 15.3255 63.5273 15.4922C63.4023 15.6562 63.224 15.8034 62.9922 15.9336C62.7604 16.0612 62.4518 16.125 62.0664 16.125ZM62.1914 15.2969C62.5612 15.2969 62.8737 15.2005 63.1289 15.0078C63.3841 14.8125 63.5781 14.543 63.7109 14.1992C63.8438 13.8529 63.9102 13.4531 63.9102 13C63.9102 12.5521 63.8451 12.1602 63.7148 11.8242C63.5846 11.4857 63.3919 11.2227 63.1367 11.0352C62.8815 10.8451 62.5664 10.75 62.1914 10.75C61.8008 10.75 61.4753 10.8503 61.2148 11.0508C60.957 11.2487 60.763 11.5182 60.6328 11.8594C60.5052 12.1979 60.4414 12.5781 60.4414 13C60.4414 13.4271 60.5065 13.8151 60.6367 14.1641C60.7695 14.5104 60.9648 14.7865 61.2227 14.9922C61.4831 15.1953 61.806 15.2969 62.1914 15.2969Z" fill="white"/>
<defs>
<clipPath id="clip0_596_7824">
<rect width="12" height="12" fill="white" transform="translate(10 6)"/>
</clipPath>
</defs>
</svg>
